<?xml version="1.0" encoding="UTF-8" standalone="no"?>
<!DOCTYPE svg PUBLIC "-//W3C//DTD SVG 1.1//EN" "http://www.w3.org/Graphics/SVG/1.1/DTD/svg11.dtd">
<svg width="100%" height="100%" viewBox="0 0 495 365" version="1.1" xmlns="http://www.w3.org/2000/svg" xmlns:xlink="http://www.w3.org/1999/xlink" xml:space="preserve" xmlns:serif="http://www.serif.com/" style="fill-rule:evenodd;clip-rule:evenodd;stroke-linejoin:round;stroke-miterlimit:2;">
    <g transform="matrix(5.55556,0,0,5.55556,0,0)">
        <rect x="6.38" y="4.5" width="17.27" height="17.27" style="fill:white;"/>
        <g transform="matrix(1,0,0,1,-26.37,-7.87)">
            <path d="M49.64,12.75L49.64,29.27L33.12,29.27L33.12,12.75L49.64,12.75M50.39,12L32.39,12L32.39,30L50.39,30L50.39,12Z" style="fill-rule:nonzero;"/>
        </g>
        <rect x="26.03" y="4.5" width="17.27" height="17.27" style="fill:white;"/>
        <g transform="matrix(1,0,0,1,-26.37,-7.87)">
            <path d="M69.3,12.75L69.3,29.27L52.78,29.27L52.78,12.75L69.3,12.75M70.05,12L52,12L52,30L70,30L70,12L70.05,12Z" style="fill-rule:nonzero;"/>
        </g>
        <rect x="45.69" y="4.5" width="17.27" height="17.27" style="fill:white;"/>
        <g transform="matrix(1,0,0,1,-26.37,-7.87)">
            <path d="M89,12.75L89,29.27L72.44,29.27L72.44,12.75L89,12.75M89.75,12L71.75,12L71.75,30L89.75,30L89.75,12Z" style="fill-rule:nonzero;"/>
        </g>
        <rect x="65.35" y="4.5" width="17.27" height="17.27" style="fill:white;"/>
        <g transform="matrix(1,0,0,1,-26.37,-7.87)">
            <path d="M108.62,12.75L108.62,29.27L92.09,29.27L92.09,12.75L108.62,12.75M109.37,12L91.37,12L91.37,30L109.37,30L109.37,12Z" style="fill-rule:nonzero;"/>
        </g>
        <rect x="26.03" y="24.16" width="17.27" height="17.27" style="fill:white;"/>
        <g transform="matrix(1,0,0,1,-26.37,-7.87)">
            <path d="M69.3,32.41L69.3,48.93L52.78,48.93L52.78,32.41L69.3,32.41M70.05,31.66L52,31.66L52,49.66L70,49.66L70,31.66L70.05,31.66Z" style="fill-rule:nonzero;"/>
        </g>
        <rect x="45.69" y="24.16" width="17.27" height="17.27" style="fill:white;"/>
        <g transform="matrix(1,0,0,1,-26.37,-7.87)">
            <path d="M89,32.41L89,48.93L72.44,48.93L72.44,32.41L89,32.41M89.75,31.66L71.75,31.66L71.75,49.66L89.75,49.66L89.75,31.66Z" style="fill-rule:nonzero;"/>
        </g>
        <rect x="65.35" y="24.16" width="17.27" height="17.27" style="fill:white;"/>
        <g transform="matrix(1,0,0,1,-26.37,-7.87)">
            <path d="M108.62,32.41L108.62,48.93L92.09,48.93L92.09,32.41L108.62,32.41M109.37,31.66L91.37,31.66L91.37,49.66L109.37,49.66L109.37,31.66Z" style="fill-rule:nonzero;"/>
        </g>
        <g transform="matrix(1,0,0,1,-26.37,-7.87)">
            <path d="M38.48,24.92C38.404,24.926 38.33,24.897 38.28,24.84C38.223,24.789 38.19,24.716 38.19,24.64L38.19,16.82C38.187,16.74 38.22,16.663 38.28,16.61C38.329,16.551 38.403,16.518 38.48,16.52L39.41,16.52C39.497,16.514 39.584,16.543 39.65,16.6C39.69,16.634 39.724,16.674 39.75,16.72L43.21,22.09L43.21,16.82C43.208,16.742 43.237,16.667 43.29,16.61C43.342,16.549 43.42,16.516 43.5,16.52L44.5,16.52C44.663,16.525 44.795,16.657 44.8,16.82L44.8,24.62C44.803,24.703 44.77,24.783 44.71,24.84C44.66,24.897 44.586,24.926 44.51,24.92L43.57,24.92C43.482,24.931 43.393,24.902 43.33,24.84L43.22,24.73L39.78,19.48L39.78,24.64C39.779,24.714 39.75,24.786 39.7,24.84C39.641,24.896 39.561,24.925 39.48,24.92L38.48,24.92Z" style="fill-rule:nonzero;"/>
        </g>
        <g transform="matrix(1,0,0,1,-26.37,-7.87)">
            <path d="M60.88,25C60.437,25.013 60,24.898 59.62,24.67C59.26,24.446 58.972,24.123 58.79,23.74C58.592,23.286 58.496,22.795 58.51,22.3L58.51,19C58.504,18.924 58.533,18.85 58.59,18.8C58.641,18.743 58.714,18.71 58.79,18.71L59.85,18.71C59.93,18.706 60.008,18.739 60.06,18.8C60.112,18.853 60.141,18.925 60.14,19L60.14,22.3C60.14,23.3 60.57,23.79 61.45,23.79C61.826,23.81 62.192,23.664 62.45,23.39C62.706,23.087 62.835,22.696 62.81,22.3L62.81,19C62.82,18.845 62.945,18.72 63.1,18.71L64.16,18.71C64.236,18.71 64.309,18.743 64.36,18.8C64.417,18.85 64.446,18.924 64.44,19L64.44,24.67C64.44,24.673 64.44,24.677 64.44,24.68C64.44,24.828 64.318,24.95 64.17,24.95C64.167,24.95 64.163,24.95 64.16,24.95L63.16,24.95C63.082,24.954 63.006,24.925 62.95,24.87C62.902,24.815 62.877,24.743 62.88,24.67L62.88,24.17C62.663,24.448 62.386,24.673 62.07,24.83C61.691,24.976 61.284,25.035 60.88,25Z" style="fill-rule:nonzero;"/>
        </g>
        <g transform="matrix(1,0,0,1,-26.37,-7.87)">
            <path d="M76.17,24.92C76.092,24.924 76.016,24.895 75.96,24.84C75.91,24.786 75.881,24.714 75.88,24.64L75.88,19C75.879,18.925 75.908,18.853 75.96,18.8C76.015,18.743 76.091,18.71 76.17,18.71L77.1,18.71C77.179,18.71 77.255,18.743 77.31,18.8C77.362,18.853 77.391,18.925 77.39,19L77.39,19.41C77.577,19.177 77.808,18.983 78.07,18.84C78.378,18.676 78.721,18.59 79.07,18.59C79.866,18.496 80.64,18.914 81,19.63C81.189,19.303 81.466,19.036 81.8,18.86C82.512,18.467 83.378,18.467 84.09,18.86C84.442,19.061 84.724,19.365 84.9,19.73C85.106,20.192 85.206,20.694 85.19,21.2L85.19,24.65C85.189,24.724 85.16,24.796 85.11,24.85C85.054,24.905 84.978,24.934 84.9,24.93L83.9,24.93C83.822,24.934 83.746,24.905 83.69,24.85C83.64,24.796 83.611,24.724 83.61,24.65L83.61,21.29C83.625,20.995 83.57,20.7 83.45,20.43C83.355,20.239 83.195,20.087 83,20C82.82,19.91 82.621,19.866 82.42,19.87C82.235,19.869 82.053,19.914 81.89,20C81.702,20.1 81.552,20.258 81.46,20.45C81.331,20.718 81.273,21.014 81.29,21.31L81.29,24.66C81.29,24.736 81.257,24.809 81.2,24.86C81.15,24.917 81.076,24.946 81,24.94L80,24.94C79.921,24.948 79.843,24.918 79.79,24.86C79.736,24.808 79.706,24.735 79.71,24.66L79.71,21.29C79.722,20.994 79.664,20.699 79.54,20.43C79.448,20.238 79.298,20.08 79.11,19.98C78.933,19.892 78.738,19.848 78.54,19.85C78.351,19.849 78.165,19.897 78,19.99C77.812,20.09 77.662,20.248 77.57,20.44C77.445,20.705 77.387,20.997 77.4,21.29L77.4,24.64C77.4,24.643 77.4,24.647 77.4,24.65C77.4,24.798 77.278,24.92 77.13,24.92C77.127,24.92 77.123,24.92 77.12,24.92L76.17,24.92Z" style="fill-rule:nonzero;"/>
        </g>
        <g transform="matrix(1,0,0,1,-26.37,-7.87)">
            <path d="M96.87,24.92C96.789,24.925 96.709,24.896 96.65,24.84C96.6,24.786 96.571,24.714 96.57,24.64L96.57,16.82C96.568,16.742 96.597,16.667 96.65,16.61C96.707,16.55 96.787,16.517 96.87,16.52L97.82,16.52C97.912,16.514 98.003,16.546 98.07,16.61C98.112,16.652 98.149,16.699 98.18,16.75L100.49,21.07L102.83,16.75L102.94,16.61C103.007,16.546 103.098,16.514 103.19,16.52L104.13,16.52C104.213,16.517 104.293,16.55 104.35,16.61C104.403,16.667 104.432,16.742 104.43,16.82L104.43,24.64C104.429,24.714 104.4,24.786 104.35,24.84C104.291,24.896 104.211,24.925 104.13,24.92L103.13,24.92C103.051,24.928 102.973,24.898 102.92,24.84C102.87,24.786 102.841,24.714 102.84,24.64L102.84,19.44L101.16,22.64C101.124,22.713 101.073,22.778 101.01,22.83C100.938,22.883 100.85,22.911 100.76,22.91L100.26,22.91C100.17,22.915 100.081,22.886 100.01,22.83C99.947,22.778 99.896,22.713 99.86,22.64L98.18,19.44L98.18,24.64C98.18,24.716 98.147,24.789 98.09,24.84C98.04,24.897 97.966,24.926 97.89,24.92L96.87,24.92Z" style="fill-rule:nonzero;"/>
        </g>
        <g transform="matrix(1,0,0,1,-26.37,-7.87)">
            <path d="M58.9,44.92C58.824,44.926 58.75,44.897 58.7,44.84C58.643,44.789 58.61,44.716 58.61,44.64L58.61,36.82C58.607,36.74 58.64,36.663 58.7,36.61C58.749,36.551 58.823,36.518 58.9,36.52L62.12,36.52C62.678,36.508 63.233,36.61 63.75,36.82C64.193,36.998 64.571,37.309 64.83,37.71C65.351,38.641 65.351,39.779 64.83,40.71C64.567,41.103 64.19,41.406 63.75,41.58C63.231,41.782 62.677,41.881 62.12,41.87L60.33,41.87L60.33,44.68C60.329,44.754 60.3,44.826 60.25,44.88C60.197,44.938 60.119,44.968 60.04,44.96L58.9,44.92ZM60.31,40.5L62.06,40.5C62.445,40.525 62.826,40.408 63.13,40.17C63.394,39.907 63.529,39.541 63.5,39.17C63.522,38.803 63.396,38.443 63.15,38.17C62.851,37.906 62.457,37.776 62.06,37.81L60.31,37.81L60.31,40.5Z" style="fill-rule:nonzero;"/>
        </g>
        <g transform="matrix(1,0,0,1,-26.37,-7.87)">
            <path d="M79.68,45C79.29,45.006 78.904,44.924 78.55,44.76C78.234,44.607 77.96,44.381 77.75,44.1C77.561,43.827 77.46,43.502 77.46,43.17C77.442,42.637 77.699,42.131 78.14,41.83C78.676,41.469 79.289,41.24 79.93,41.16L81.57,41L81.57,40.75C81.577,40.704 81.581,40.657 81.581,40.61C81.581,40.1 81.161,39.68 80.651,39.68C80.587,39.68 80.523,39.687 80.46,39.7C80.215,39.686 79.971,39.745 79.76,39.87C79.583,39.982 79.441,40.142 79.35,40.33C79.299,40.431 79.193,40.494 79.08,40.49L78.08,40.49C78.007,40.492 77.936,40.467 77.88,40.42C77.838,40.362 77.817,40.291 77.82,40.22C77.837,40.058 77.888,39.901 77.97,39.76C78.085,39.55 78.241,39.367 78.43,39.22C78.67,39.03 78.941,38.881 79.23,38.78C79.613,38.652 80.016,38.591 80.42,38.6C80.854,38.593 81.286,38.658 81.7,38.79C82.012,38.89 82.296,39.062 82.53,39.29C82.738,39.489 82.898,39.731 83,40C83.093,40.288 83.14,40.588 83.14,40.89L83.14,44.66C83.139,44.734 83.11,44.806 83.06,44.86C83.004,44.915 82.928,44.944 82.85,44.94L81.85,44.94C81.771,44.948 81.693,44.918 81.64,44.86C81.59,44.806 81.561,44.734 81.56,44.66L81.56,44.19C81.446,44.354 81.304,44.496 81.14,44.61C80.947,44.755 80.73,44.867 80.5,44.94C80.231,44.998 79.955,45.018 79.68,45ZM80.09,43.86C80.354,43.863 80.615,43.801 80.85,43.68C81.083,43.558 81.272,43.366 81.39,43.13C81.538,42.818 81.607,42.475 81.59,42.13L81.59,42L80.39,42.19C80.015,42.226 79.653,42.346 79.33,42.54C79.12,42.663 78.988,42.887 78.98,43.13C78.981,43.294 79.038,43.452 79.14,43.58C79.255,43.704 79.399,43.797 79.56,43.85C79.732,43.897 79.912,43.914 80.09,43.9L80.09,43.86Z" style="fill-rule:nonzero;"/>
        </g>
        <g transform="matrix(1,0,0,1,-26.37,-7.87)">
            <path d="M99.93,45C99.553,45.008 99.178,44.936 98.83,44.79C98.525,44.661 98.257,44.458 98.05,44.2C97.834,43.93 97.671,43.621 97.57,43.29C97.449,42.922 97.382,42.538 97.37,42.15L97.37,41.37C97.385,40.99 97.449,40.614 97.56,40.25C97.663,39.923 97.826,39.618 98.04,39.35C98.252,39.088 98.523,38.879 98.83,38.74C99.177,38.59 99.552,38.516 99.93,38.52C100.31,38.51 100.686,38.589 101.03,38.75C101.319,38.882 101.575,39.077 101.78,39.32L101.78,36.69C101.774,36.614 101.803,36.54 101.86,36.49C101.912,36.429 101.99,36.396 102.07,36.4L103.07,36.4C103.146,36.4 103.219,36.433 103.27,36.49C103.327,36.54 103.356,36.614 103.35,36.69L103.35,44.69C103.35,44.693 103.35,44.697 103.35,44.7C103.35,44.848 103.228,44.97 103.08,44.97C103.077,44.97 103.073,44.97 103.07,44.97L102.07,44.97C101.991,44.978 101.913,44.948 101.86,44.89C101.81,44.836 101.781,44.764 101.78,44.69L101.78,44.24C101.573,44.495 101.314,44.703 101.02,44.85C100.672,44.98 100.3,45.031 99.93,45ZM100.37,43.72C100.658,43.734 100.942,43.653 101.18,43.49C101.38,43.344 101.533,43.142 101.62,42.91C101.717,42.678 101.771,42.431 101.78,42.18L101.78,41.26C101.769,41.021 101.711,40.787 101.61,40.57C101.506,40.351 101.348,40.161 101.15,40.02C100.918,39.871 100.645,39.797 100.37,39.81C99.83,39.767 99.326,40.098 99.15,40.61C99.059,40.864 99.006,41.13 98.99,41.4L98.99,42.12C99.005,42.393 99.058,42.662 99.15,42.92C99.326,43.432 99.83,43.763 100.37,43.72Z" style="fill-rule:nonzero;"/>
        </g>
        <g transform="matrix(1,0,0,1.00315,0.0225631,-0.0114147)">
            <rect x="-0.023" y="0.008" width="1.25" height="22.054"/>
        </g>
        <g transform="matrix(1,0,0,1,-0.0113808,0.182092)">
            <rect x="-0.045" y="-0.199" width="89.055" height="1.289"/>
        </g>
        <g transform="matrix(1,0,0,1,0,1)">
            <rect x="87.733" y="-0.216" width="1.272" height="65.63"/>
        </g>
    </g>
</svg>
